<svg width="178" height="61" viewBox="0 0 178 61" fill="none" xmlns="http://www.w3.org/2000/svg">
<rect x="28.8203" y="36.0625" width="117.935" height="5.16484" fill="white"/>
<rect x="28.8203" y="36.0625" width="117.935" height="5.16484" fill="white"/>
<mask id="path-2-outside-1_197_308" maskUnits="userSpaceOnUse" x="24.0156" y="33.6445" width="131" height="27" fill="black">
<rect fill="white" x="24.0156" y="33.6445" width="131" height="27"/>
<path d="M135.498 42.9482H144.157L139.654 48.9746L144.157 55H132.034V50.6963H46.1377V55H34.0156L38.5186 48.9746L34.0156 42.9482H42.6748V38.6445H135.498V42.9482Z"/>
</mask>
<path d="M135.498 42.9482H144.157L139.654 48.9746L144.157 55H132.034V50.6963H46.1377V55H34.0156L38.5186 48.9746L34.0156 42.9482H42.6748V38.6445H135.498V42.9482Z" fill="#022642"/>
<path d="M135.498 42.9482H130.498V47.9482H135.498V42.9482ZM144.157 42.9482L148.163 45.9411L154.135 37.9482H144.157V42.9482ZM139.654 48.9746L135.649 45.9818L133.412 48.9749L135.649 51.9678L139.654 48.9746ZM144.157 55V60H154.136L148.162 52.0069L144.157 55ZM132.034 55H127.034V60H132.034V55ZM132.034 50.6963H137.034V45.6963H132.034V50.6963ZM46.1377 50.6963V45.6963H41.1377V50.6963H46.1377ZM46.1377 55V60H51.1377V55H46.1377ZM34.0156 55L30.0105 52.0069L24.037 60H34.0156V55ZM38.5186 48.9746L42.5237 51.9678L44.7604 48.9749L42.5239 45.9818L38.5186 48.9746ZM34.0156 42.9482V37.9482H24.038L30.0103 45.9411L34.0156 42.9482ZM42.6748 42.9482V47.9482H47.6748V42.9482H42.6748ZM42.6748 38.6445V33.6445H37.6748V38.6445H42.6748ZM135.498 38.6445H140.498V33.6445H135.498V38.6445ZM135.498 42.9482V47.9482H144.157V42.9482V37.9482H135.498V42.9482ZM144.157 42.9482L140.152 39.9554L135.649 45.9818L139.654 48.9746L143.66 51.9674L148.163 45.9411L144.157 42.9482ZM139.654 48.9746L135.649 51.9678L140.152 57.9931L144.157 55L148.162 52.0069L143.659 45.9815L139.654 48.9746ZM144.157 55V50H132.034V55V60H144.157V55ZM132.034 55H137.034V50.6963H132.034H127.034V55H132.034ZM132.034 50.6963V45.6963H46.1377V50.6963V55.6963H132.034V50.6963ZM46.1377 50.6963H41.1377V55H46.1377H51.1377V50.6963H46.1377ZM46.1377 55V50H34.0156V55V60H46.1377V55ZM34.0156 55L38.0208 57.9931L42.5237 51.9678L38.5186 48.9746L34.5134 45.9815L30.0105 52.0069L34.0156 55ZM38.5186 48.9746L42.5239 45.9818L38.021 39.9554L34.0156 42.9482L30.0103 45.9411L34.5132 51.9674L38.5186 48.9746ZM34.0156 42.9482V47.9482H42.6748V42.9482V37.9482H34.0156V42.9482ZM42.6748 42.9482H47.6748V38.6445H42.6748H37.6748V42.9482H42.6748ZM42.6748 38.6445V43.6445H135.498V38.6445V33.6445H42.6748V38.6445ZM135.498 38.6445H130.498V42.9482H135.498H140.498V38.6445H135.498Z" fill="white" mask="url(#path-2-outside-1_197_308)"/>
<mask id="path-4-outside-2_197_308" maskUnits="userSpaceOnUse" x="1" y="2" width="176" height="47" fill="black">
<rect fill="white" x="1" y="2" width="176" height="47"/>
<path fill-rule="evenodd" clip-rule="evenodd" d="M22.2393 42.6045H7V33.3076H10.9834V17.2969H7V8H22.2393V42.6045ZM155.761 42.6045H171V33.3076H167.017V17.2969H171V8H155.761V42.6045ZM152.643 8H25.3569H22.2397V17.2967V33.3077V36.7509V42.6044H25.3569L31.245 36.7509H146.755L152.643 42.6044H155.76V36.7509V33.3077V17.2967V8H152.643Z"/>
</mask>
<path fill-rule="evenodd" clip-rule="evenodd" d="M22.2393 42.6045H7V33.3076H10.9834V17.2969H7V8H22.2393V42.6045ZM155.761 42.6045H171V33.3076H167.017V17.2969H171V8H155.761V42.6045ZM152.643 8H25.3569H22.2397V17.2967V33.3077V36.7509V42.6044H25.3569L31.245 36.7509H146.755L152.643 42.6044H155.76V36.7509V33.3077V17.2967V8H152.643Z" fill="black"/>
<path d="M7 42.6045H1V48.6045H7V42.6045ZM22.2393 42.6045V48.6045H28.2393V42.6045H22.2393ZM7 33.3076V27.3076H1V33.3076H7ZM10.9834 33.3076V39.3076H16.9834V33.3076H10.9834ZM10.9834 17.2969H16.9834V11.2969H10.9834V17.2969ZM7 17.2969H1V23.2969H7V17.2969ZM7 8V2H1V8H7ZM22.2393 8H28.2393V2H22.2393V8ZM171 42.6045V48.6045H177V42.6045H171ZM155.761 42.6045H149.761V48.6045H155.761V42.6045ZM171 33.3076H177V27.3076H171V33.3076ZM167.017 33.3076H161.017V39.3076H167.017V33.3076ZM167.017 17.2969V11.2969H161.017V17.2969H167.017ZM171 17.2969V23.2969H177V17.2969H171ZM171 8H177V2H171V8ZM155.761 8V2H149.761V8H155.761ZM22.2397 8V2H16.2397V8H22.2397ZM22.2397 42.6044H16.2397V48.6044H22.2397V42.6044ZM25.3569 42.6044V48.6044H27.8319L29.587 46.8595L25.3569 42.6044ZM31.245 36.7509V30.7509H28.77L27.0149 32.4958L31.245 36.7509ZM146.755 36.7509L150.985 32.4958L149.23 30.7509H146.755V36.7509ZM152.643 42.6044L148.413 46.8595L150.168 48.6044H152.643V42.6044ZM155.76 42.6044V48.6044H161.76V42.6044H155.76ZM155.76 8H161.76V2H155.76V8ZM7 42.6045V48.6045H22.2393V42.6045V36.6045H7V42.6045ZM7 33.3076H1V42.6045H7H13V33.3076H7ZM10.9834 33.3076V27.3076H7V33.3076V39.3076H10.9834V33.3076ZM10.9834 17.2969H4.9834V33.3076H10.9834H16.9834V17.2969H10.9834ZM7 17.2969V23.2969H10.9834V17.2969V11.2969H7V17.2969ZM7 8H1V17.2969H7H13V8H7ZM22.2393 8V2H7V8V14H22.2393V8ZM22.2393 42.6045H28.2393V8H22.2393H16.2393V42.6045H22.2393ZM171 42.6045V36.6045H155.761V42.6045V48.6045H171V42.6045ZM171 33.3076H165V42.6045H171H177V33.3076H171ZM167.017 33.3076V39.3076H171V33.3076V27.3076H167.017V33.3076ZM167.017 17.2969H161.017V33.3076H167.017H173.017V17.2969H167.017ZM171 17.2969V11.2969H167.017V17.2969V23.2969H171V17.2969ZM171 8H165V17.2969H171H177V8H171ZM155.761 8V14H171V8V2H155.761V8ZM155.761 42.6045H161.761V8H155.761H149.761V42.6045H155.761ZM25.3569 8V14H152.643V8V2H25.3569V8ZM22.2397 8V14H25.3569V8V2H22.2397V8ZM22.2397 17.2967H28.2397V8H22.2397H16.2397V17.2967H22.2397ZM22.2397 33.3077H28.2397V17.2967H22.2397H16.2397V33.3077H22.2397ZM22.2397 36.7509H28.2397V33.3077H22.2397H16.2397V36.7509H22.2397ZM22.2397 42.6044H28.2397V36.7509H22.2397H16.2397V42.6044H22.2397ZM25.3569 42.6044V36.6044H22.2397V42.6044V48.6044H25.3569V42.6044ZM31.245 36.7509L27.0149 32.4958L21.1268 38.3493L25.3569 42.6044L29.587 46.8595L35.4751 41.006L31.245 36.7509ZM146.755 36.7509V30.7509H31.245V36.7509V42.7509H146.755V36.7509ZM152.643 42.6044L156.873 38.3493L150.985 32.4958L146.755 36.7509L142.525 41.006L148.413 46.8595L152.643 42.6044ZM155.76 42.6044V36.6044H152.643V42.6044V48.6044H155.76V42.6044ZM155.76 36.7509H149.76V42.6044H155.76H161.76V36.7509H155.76ZM155.76 33.3077H149.76V36.7509H155.76H161.76V33.3077H155.76ZM155.76 17.2967H149.76V33.3077H155.76H161.76V17.2967H155.76ZM155.76 8H149.76V17.2967H155.76H161.76V8H155.76ZM152.643 8V14H155.76V8V2H152.643V8Z" fill="white" mask="url(#path-4-outside-2_197_308)"/>
<mask id="path-6-outside-3_197_308" maskUnits="userSpaceOnUse" x="5" y="6" width="168" height="39" fill="black">
<rect fill="white" x="5" y="6" width="168" height="39"/>
<path d="M171 17.2969H167.017V33.3076H171V42.6045H152.644L146.755 36.751H31.2451L25.3564 42.6045H7V33.3076H10.9834V17.2969H7V8H171V17.2969Z"/>
</mask>
<path d="M171 17.2969H167.017V33.3076H171V42.6045H152.644L146.755 36.751H31.2451L25.3564 42.6045H7V33.3076H10.9834V17.2969H7V8H171V17.2969Z" fill="#0D639B"/>
<path d="M171 17.2969V19.2969H173V17.2969H171ZM167.017 17.2969V15.2969H165.017V17.2969H167.017ZM167.017 33.3076H165.017V35.3076H167.017V33.3076ZM171 33.3076H173V31.3076H171V33.3076ZM171 42.6045V44.6045H173V42.6045H171ZM152.644 42.6045L151.234 44.0229L151.819 44.6045H152.644V42.6045ZM146.755 36.751L148.165 35.3325L147.58 34.751H146.755V36.751ZM31.2451 36.751V34.751H30.4202L29.8351 35.3325L31.2451 36.751ZM25.3564 42.6045V44.6045H26.1814L26.7664 44.0229L25.3564 42.6045ZM7 42.6045H5V44.6045H7V42.6045ZM7 33.3076V31.3076H5V33.3076H7ZM10.9834 33.3076V35.3076H12.9834V33.3076H10.9834ZM10.9834 17.2969H12.9834V15.2969H10.9834V17.2969ZM7 17.2969H5V19.2969H7V17.2969ZM7 8V6H5V8H7ZM171 8H173V6H171V8ZM171 17.2969V15.2969H167.017V17.2969V19.2969H171V17.2969ZM167.017 17.2969H165.017V33.3076H167.017H169.017V17.2969H167.017ZM167.017 33.3076V35.3076H171V33.3076V31.3076H167.017V33.3076ZM171 33.3076H169V42.6045H171H173V33.3076H171ZM171 42.6045V40.6045H152.644V42.6045V44.6045H171V42.6045ZM152.644 42.6045L154.054 41.1861L148.165 35.3325L146.755 36.751L145.345 38.1694L151.234 44.0229L152.644 42.6045ZM146.755 36.751V34.751H31.2451V36.751V38.751H146.755V36.751ZM31.2451 36.751L29.8351 35.3325L23.9465 41.1861L25.3564 42.6045L26.7664 44.0229L32.6551 38.1694L31.2451 36.751ZM25.3564 42.6045V40.6045H7V42.6045V44.6045H25.3564V42.6045ZM7 42.6045H9V33.3076H7H5V42.6045H7ZM7 33.3076V35.3076H10.9834V33.3076V31.3076H7V33.3076ZM10.9834 33.3076H12.9834V17.2969H10.9834H8.9834V33.3076H10.9834ZM10.9834 17.2969V15.2969H7V17.2969V19.2969H10.9834V17.2969ZM7 17.2969H9V8H7H5V17.2969H7ZM7 8V10H171V8V6H7V8ZM171 8H169V17.2969H171H173V8H171Z" fill="black" mask="url(#path-6-outside-3_197_308)"/>
<path d="M167.947 13.5955H164.128V36.0925H168.227V39.8504H156.095V36.0925H159.859V13.5955H155.758V10.7547H167.947V13.5955Z" fill="white"/>
<path d="M167.947 13.5955H164.128V36.0925H168.227V39.8504H156.095V36.0925H159.859V13.5955H155.758V10.7547H167.947V13.5955Z" stroke="white"/>
<path d="M153.246 13.6332H148.616V33.1352H145.635V13.6332H140.77V10.7856H153.246V13.6332Z" fill="white"/>
<path d="M153.246 13.6332H148.616V33.1352H145.635V13.6332H140.77V10.7856H153.246V13.6332Z" stroke="white"/>
<path d="M137.99 13.5552H128.534V18.3921H137.99V21.1997H128.534V30.0933H137.99V33.1353H125.552V10.7856L137.99 10.7466V13.5552Z" fill="white"/>
<path d="M137.99 13.5552H128.534V18.3921H137.99V21.1997H128.534V30.0933H137.99V33.1353H125.552V10.7856L137.99 10.7466V13.5552Z" stroke="white"/>
<path d="M121.125 19.9516H122.733V33.1352H110.296V10.7856H121.125V19.9516ZM113.277 30.1323H119.595V22.7602H113.277V30.1323ZM113.277 19.9516H118.025V13.5551H113.277V19.9516Z" fill="white"/>
<path d="M121.125 19.9516H122.733V33.1352H110.296V10.7856H121.125V19.9516ZM113.277 30.1323H119.595V22.7602H113.277V30.1323ZM113.277 19.9516H118.025V13.5551H113.277V19.9516Z" stroke="white"/>
<path d="M107.477 13.5552H98.021V18.3921H107.477V21.1997H98.021V30.0933H107.477V33.1353H95.0396V10.7856L107.477 10.7466V13.5552Z" fill="white"/>
<path d="M107.477 13.5552H98.021V18.3921H107.477V21.1997H98.021V30.0933H107.477V33.1353H95.0396V10.7856L107.477 10.7466V13.5552Z" stroke="white"/>
<path d="M73.7014 30.3276H79.7834V10.7856H83.0002V30.3276H89.2785V10.7856H92.26V33.1352H70.5627V10.7856H73.7014V30.3276Z" fill="white"/>
<path d="M73.7014 30.3276H79.7834V10.7856H83.0002V30.3276H89.2785V10.7856H92.26V33.1352H70.5627V10.7856H73.7014V30.3276Z" stroke="white"/>
<path d="M67.7438 33.1352H55.3063V10.7856H67.7438V33.1352ZM58.2877 30.0932H64.6051V13.5942H58.2877V30.0932Z" fill="white"/>
<path d="M67.7438 33.1352H55.3063V10.7856H67.7438V33.1352ZM58.2877 30.0932H64.6051V13.5942H58.2877V30.0932Z" stroke="white"/>
<path d="M52.4874 13.5552H43.0313V18.3921H52.4874V21.1997H43.0313V33.1353H40.0499V10.7856L52.4874 10.7466V13.5552Z" fill="white"/>
<path d="M52.4874 13.5552H43.0313V18.3921H52.4874V21.1997H43.0313V33.1353H40.0499V10.7856L52.4874 10.7466V13.5552Z" stroke="white"/>
<path d="M34.0923 23.1499V10.7856H37.231V33.1353H34.8774L27.7749 19.1714V33.1353H24.7935V10.7856L27.6577 10.7466L34.0923 23.1499Z" fill="white"/>
<path d="M34.0923 23.1499V10.7856H37.231V33.1353H34.8774L27.7749 19.1714V33.1353H24.7935V10.7856L27.6577 10.7466L34.0923 23.1499Z" stroke="white"/>
<path d="M146.755 36.751H152.643V42.6045L146.755 36.751Z" fill="#022642"/>
<path d="M31.245 36.751H25.3569V42.6045L31.245 36.751Z" fill="#022642"/>
<path d="M21.9595 13.5952H18.1401V36.0923H22.2397V39.8501H10.1079V36.0923H13.8716V13.5952H9.771V10.7544H21.9595V13.5952Z" fill="white"/>
<path d="M21.9595 13.5952H18.1401V36.0923H22.2397V39.8501H10.1079V36.0923H13.8716V13.5952H9.771V10.7544H21.9595V13.5952Z" stroke="white"/>
<mask id="path-20-outside-4_197_308" maskUnits="userSpaceOnUse" x="30.0156" y="36.6445" width="119" height="21" fill="black">
<rect fill="white" x="30.0156" y="36.6445" width="119" height="21"/>
<path d="M135.498 42.9482H144.157L139.654 48.9746L144.157 55H132.034V50.6963H46.1377V55H34.0156L38.5186 48.9746L34.0156 42.9482H42.6748V38.6445H135.498V42.9482Z"/>
</mask>
<path d="M135.498 42.9482H144.157L139.654 48.9746L144.157 55H132.034V50.6963H46.1377V55H34.0156L38.5186 48.9746L34.0156 42.9482H42.6748V38.6445H135.498V42.9482Z" fill="#022642"/>
<path d="M135.498 42.9482H133.498V44.9482H135.498V42.9482ZM144.157 42.9482L145.759 44.1454L148.148 40.9482H144.157V42.9482ZM139.654 48.9746L138.052 47.7775L137.158 48.9747L138.052 50.1719L139.654 48.9746ZM144.157 55V57H148.149L145.759 53.8027L144.157 55ZM132.034 55H130.034V57H132.034V55ZM132.034 50.6963H134.034V48.6963H132.034V50.6963ZM46.1377 50.6963V48.6963H44.1377V50.6963H46.1377ZM46.1377 55V57H48.1377V55H46.1377ZM34.0156 55L32.4136 53.8027L30.0242 57H34.0156V55ZM38.5186 48.9746L40.1206 50.1719L41.0153 48.9747L40.1207 47.7775L38.5186 48.9746ZM34.0156 42.9482V40.9482H30.0246L32.4135 44.1454L34.0156 42.9482ZM42.6748 42.9482V44.9482H44.6748V42.9482H42.6748ZM42.6748 38.6445V36.6445H40.6748V38.6445H42.6748ZM135.498 38.6445H137.498V36.6445H135.498V38.6445ZM135.498 42.9482V44.9482H144.157V42.9482V40.9482H135.498V42.9482ZM144.157 42.9482L142.555 41.7511L138.052 47.7775L139.654 48.9746L141.256 50.1717L145.759 44.1454L144.157 42.9482ZM139.654 48.9746L138.052 50.1719L142.555 56.1973L144.157 55L145.759 53.8027L141.256 47.7774L139.654 48.9746ZM144.157 55V53H132.034V55V57H144.157V55ZM132.034 55H134.034V50.6963H132.034H130.034V55H132.034ZM132.034 50.6963V48.6963H46.1377V50.6963V52.6963H132.034V50.6963ZM46.1377 50.6963H44.1377V55H46.1377H48.1377V50.6963H46.1377ZM46.1377 55V53H34.0156V55V57H46.1377V55ZM34.0156 55L35.6177 56.1973L40.1206 50.1719L38.5186 48.9746L36.9165 47.7774L32.4136 53.8027L34.0156 55ZM38.5186 48.9746L40.1207 47.7775L35.6178 41.7511L34.0156 42.9482L32.4135 44.1454L36.9164 50.1717L38.5186 48.9746ZM34.0156 42.9482V44.9482H42.6748V42.9482V40.9482H34.0156V42.9482ZM42.6748 42.9482H44.6748V38.6445H42.6748H40.6748V42.9482H42.6748ZM42.6748 38.6445V40.6445H135.498V38.6445V36.6445H42.6748V38.6445ZM135.498 38.6445H133.498V42.9482H135.498H137.498V38.6445H135.498Z" fill="black" mask="url(#path-20-outside-4_197_308)"/>
<path d="M132.035 42.9486H144.157L139.654 48.9742L144.157 54.9998H132.035V42.9486Z" fill="#0E3B5D"/>
<path d="M46.1381 42.9486H34.0156L38.5183 48.9742L34.0156 54.9998H46.1381V42.9486Z" fill="#0E3B5D"/>
<rect x="42.6746" y="38.6445" width="92.8237" height="12.0513" fill="#0D639B"/>
<path d="M130.649 48.3106H129.647V45.0743H127.628V48.3106H126.676V41.0674H130.649V48.3106ZM127.628 44.1641H129.647V41.9649H127.628V44.1641Z" fill="white"/>
<path d="M130.649 48.3106H129.647V45.0743H127.628V48.3106H126.676V41.0674H130.649V48.3106ZM127.628 44.1641H129.647V41.9649H127.628V44.1641Z" stroke="white"/>
<path d="M124.877 43.128H123.938V42.003H121.907V47.4005H124.777V48.3106H120.904V41.0674H124.877V43.128Z" fill="white"/>
<path d="M124.877 43.128H123.938V42.003H121.907V47.4005H124.777V48.3106H120.904V41.0674H124.877V43.128Z" stroke="white"/>
<path d="M119.431 41.9903H118.579V47.3751H119.494V48.3106H116.787V47.3751H117.627V41.9903H116.712V41.0674H119.431V41.9903Z" fill="white"/>
<path d="M119.431 41.9903H118.579V47.3751H119.494V48.3106H116.787V47.3751H117.627V41.9903H116.712V41.0674H119.431V41.9903Z" stroke="white"/>
<path d="M115.301 41.9903H113.823V48.3106H112.87V41.9903H111.316V41.0674H115.301V41.9903Z" fill="white"/>
<path d="M115.301 41.9903H113.823V48.3106H112.87V41.9903H111.316V41.0674H115.301V41.9903Z" stroke="white"/>
<path d="M109.529 48.3106H108.527V45.0743H106.509V48.3106H105.557V41.0674H109.529V48.3106ZM106.509 44.1641H108.527V41.9649H106.509V44.1641Z" fill="white"/>
<path d="M109.529 48.3106H108.527V45.0743H106.509V48.3106H105.557V41.0674H109.529V48.3106ZM106.509 44.1641H108.527V41.9649H106.509V44.1641Z" stroke="white"/>
<path d="M103.77 48.3106H102.767V41.9649H100.812V48.3106H99.7849V41.9649H97.7917V48.3106H96.8396V41.0674H103.77V48.3106Z" fill="white"/>
<path d="M103.77 48.3106H102.767V41.9649H100.812V48.3106H99.7849V41.9649H97.7917V48.3106H96.8396V41.0674H103.77V48.3106Z" stroke="white"/>
<path d="M94.7901 45.0743H93.6866L95.4288 48.3107H94.1759L92.421 45.0743H92.0196L92.0323 48.3107H91.0675V41.0675H94.7901V45.0743ZM92.0196 44.1642H93.7872V41.965H92.0196V44.1642Z" fill="white"/>
<path d="M94.7901 45.0743H93.6866L95.4288 48.3107H94.1759L92.421 45.0743H92.0196L92.0323 48.3107H91.0675V41.0675H94.7901V45.0743ZM92.0196 44.1642H93.7872V41.965H92.0196V44.1642Z" stroke="white"/>
<path d="M89.2686 48.3106H85.2959V41.0674H89.2686V48.3106ZM86.2481 47.3243H88.2666V41.9776H86.2481V47.3243Z" fill="white"/>
<path d="M89.2686 48.3106H85.2959V41.0674H89.2686V48.3106ZM86.2481 47.3243H88.2666V41.9776H86.2481V47.3243Z" stroke="white"/>
<path d="M83.4968 41.965H80.4763V43.5323H83.4968V44.4425H80.4763V48.3107H79.5241V41.0675L83.4968 41.0548V41.965Z" fill="white"/>
<path d="M83.4968 41.965H80.4763V43.5323H83.4968V44.4425H80.4763V48.3107H79.5241V41.0675L83.4968 41.0548V41.965Z" stroke="white"/>
<path d="M76.723 45.0743V41.0675H77.725V48.3107H76.973L74.7045 43.7853V48.3107H73.7523V41.0675L74.6674 41.0548L76.723 45.0743Z" fill="white"/>
<path d="M76.723 45.0743V41.0675H77.725V48.3107H76.973L74.7045 43.7853V48.3107H73.7523V41.0675L74.6674 41.0548L76.723 45.0743Z" stroke="white"/>
<path d="M72.2794 41.9903H71.4269V47.3751H72.3419V48.3106H69.6349V47.3751H70.4747V41.9903H69.5597V41.0674H72.2794V41.9903Z" fill="white"/>
<path d="M72.2794 41.9903H71.4269V47.3751H72.3419V48.3106H69.6349V47.3751H70.4747V41.9903H69.5597V41.0674H72.2794V41.9903Z" stroke="white"/>
<path d="M67.3336 45.7193H63.8746V44.8218H67.3336V45.7193Z" fill="white"/>
<path d="M67.3336 45.7193H63.8746V44.8218H67.3336V45.7193Z" stroke="white"/>
<path d="M61.26 48.3106H60.2571V41.9649H58.302V48.3106H57.2747V41.9649H55.2815V48.3106H54.3294V41.0674H61.26V48.3106Z" fill="white"/>
<path d="M61.26 48.3106H60.2571V41.9649H58.302V48.3106H57.2747V41.9649H55.2815V48.3106H54.3294V41.0674H61.26V48.3106Z" stroke="white"/>
<path d="M52.5743 44.7062L49.4454 47.1095H52.5743V48.3107L47.5558 48.2951V47.0451L51.3038 43.8898V42.2872H48.7306V43.713H47.5235V41.0861H52.5743V44.7062Z" fill="white"/>
<path d="M52.5743 44.7062L49.4454 47.1095H52.5743V48.3107L47.5558 48.2951V47.0451L51.3038 43.8898V42.2872H48.7306V43.713H47.5235V41.0861H52.5743V44.7062Z" stroke="white"/>
<path d="M46.1381 50.6958H42.6746L46.1381 54.9998V50.6958Z" fill="#022642"/>
<path d="M132.035 50.6958H135.498L132.035 54.9998V50.6958Z" fill="#022642"/>
</svg>
